<?xml version="1.0" standalone="no"?>
<!DOCTYPE svg PUBLIC "-//W3C//DTD SVG 20010904//EN"
 "http://www.w3.org/TR/2001/REC-SVG-20010904/DTD/svg10.dtd">
<svg version="1.0" xmlns="http://www.w3.org/2000/svg"
 width="5834.000000pt" height="5834.000000pt" viewBox="0 0 5834.000000 5834.000000"
 preserveAspectRatio="xMidYMid meet">

<g transform="translate(0.000000,5834.000000) scale(0.100000,-0.100000)"
fill="#000000" stroke="none">
<path d="M15625 29899 c-222 -30 -406 -107 -592 -249 -119 -90 -1347 -1327
-1410 -1420 -282 -418 -291 -935 -23 -1360 48 -76 381 -413 3329 -3362 1801
-1803 3276 -3276 3277 -3275 2 1 289 1010 639 2242 l636 2239 -2463 2462
c-2204 2203 -2473 2468 -2555 2522 -146 96 -289 156 -447 188 -93 18 -302 25
-391 13z"/>
<path d="M22457 20852 l-2238 -636 3283 -3282 c3594 -3594 3333 -3341 3549
-3436 222 -98 515 -128 748 -77 144 31 309 103 441 192 93 63 1330 1291 1420
1409 150 198 227 392 251 636 28 274 -49 568 -212 809 -41 62 -576 602 -2523
2551 -1359 1359 -2473 2472 -2476 2471 -3 0 -1012 -287 -2243 -637z"/>
</g>
</svg>
